<svg width="34" height="46" viewBox="0 0 34 46" fill="none" xmlns="http://www.w3.org/2000/svg">
<path fill-rule="evenodd" clip-rule="evenodd" d="M16.8687 44.8379C11.3682 44.8379 1.36901 42.3379 1.36865 29.8379C1.36841 21.3379 5.36841 16.8379 9.36865 12.3379C12.8986 8.36688 13.8679 6.33933 15.367 0.843855C15.3678 0.840811 15.3714 0.839234 15.3742 0.840648C21.3674 3.84312 19.3687 12.3385 19.3687 14.3379C19.3687 16.3379 19.8687 19.3379 23.3687 19.3379C26.3656 19.3379 27.8656 17.3419 28.8656 14.8455C28.867 14.842 28.8715 14.8411 28.8739 14.8439C32.3708 18.8472 34.4897 28.0958 30.3687 36.3379C28.3687 40.3379 23.3685 44.8379 16.8687 44.8379ZM10.3687 35.8379C14.8687 41.3379 21.2373 38.6864 22.3687 37.8379C24.3687 36.3379 25.8419 34.6507 25.3687 31.3379C24.3692 24.3419 13.8807 25.8361 14.3678 17.8516C14.3681 17.847 14.3626 17.8439 14.3593 17.8472C9.36564 22.8488 6.94026 31.6476 10.3687 35.8379Z" fill="#FF7B79"/>
<path d="M22.3687 37.8379C21.2373 38.6864 14.8687 41.3379 10.3687 35.8379C6.94026 31.6476 9.36564 22.8488 14.3593 17.8472C14.3626 17.8439 14.3681 17.847 14.3678 17.8516C13.8807 25.8361 24.3692 24.3419 25.3687 31.3379C25.8419 34.6507 24.3687 36.3379 22.3687 37.8379Z" fill="#FFCD69"/>
<path fill-rule="evenodd" clip-rule="evenodd" d="M16.8687 44.8379C11.3682 44.8379 1.36901 42.3379 1.36865 29.8379C1.36841 21.3379 5.36841 16.8379 9.36865 12.3379C12.8986 8.36688 13.8679 6.33933 15.367 0.843855C15.3678 0.840811 15.3714 0.839234 15.3742 0.840648C21.3674 3.84312 19.3687 12.3385 19.3687 14.3379C19.3687 16.3379 19.8687 19.3379 23.3687 19.3379C26.3656 19.3379 27.8656 17.3419 28.8656 14.8455C28.867 14.842 28.8715 14.8411 28.8739 14.8439C32.3708 18.8472 34.4897 28.0958 30.3687 36.3379C28.3687 40.3379 23.3685 44.8379 16.8687 44.8379ZM10.3687 35.8379C14.8687 41.3379 21.2373 38.6864 22.3687 37.8379C24.3687 36.3379 25.8419 34.6507 25.3687 31.3379C24.3692 24.3419 13.8807 25.8361 14.3678 17.8516C14.3681 17.847 14.3626 17.8439 14.3593 17.8472C9.36564 22.8488 6.94026 31.6476 10.3687 35.8379Z" stroke="black" stroke-width="1.5"/>
<path d="M22.3687 37.8379C21.2373 38.6864 14.8687 41.3379 10.3687 35.8379C6.94026 31.6476 9.36564 22.8488 14.3593 17.8472C14.3626 17.8439 14.3681 17.847 14.3678 17.8516C13.8807 25.8361 24.3692 24.3419 25.3687 31.3379C25.8419 34.6507 24.3687 36.3379 22.3687 37.8379Z" stroke="black" stroke-width="1.5"/>
</svg>
