<svg width="50" height="39" viewBox="0 0 50 39" fill="none" xmlns="http://www.w3.org/2000/svg">
<path d="M21.69 35.9924C19.1146 34.8985 16.0245 30.1322 15.5094 27.5537C14.5835 22.9181 16.5393 18.6462 23.7502 17.2398C26.6052 16.6829 28.4106 16.42 29.9015 16.2183C29.9115 16.217 29.9213 16.2157 29.9312 16.2143C30.1338 16.187 30.3305 16.1607 30.5234 16.135C32.4818 15.8737 34.0398 15.6658 37.1419 14.8957C38.172 8.8011 36.1709 5.9257 31.9913 2.70652C25.2957 -2.45052 13.9641 4.11289 9.32845 9.73868C1.26967 19.5188 -3.03259 30.3666 6.23805 35.9924C11.904 39.4308 19.6297 37.2426 21.69 35.9924Z" fill="#F0A65F"/>
<path d="M15.5094 27.5537C16.0245 30.1322 19.1146 34.8985 21.69 35.9924C26.0484 36.6536 29.0622 36.9651 31.4764 36.9269C35.9095 36.8568 38.3207 35.6077 43.3226 33.1795C51.0486 29.429 48.9883 21.9279 47.9582 19.5839C46.9281 17.2398 42.8076 13.4893 37.1419 14.8957C34.0398 15.6658 32.4818 15.8737 30.5234 16.135C30.3305 16.1607 30.1338 16.187 29.9312 16.2143C29.9213 16.2157 29.9115 16.217 29.9015 16.2183C28.4106 16.42 26.6052 16.6829 23.7502 17.2398C16.5393 18.6462 14.5835 22.9181 15.5094 27.5537Z" fill="#F0A65F"/>
<path d="M21.69 35.9924C19.1146 34.8985 16.0245 30.1322 15.5094 27.5537C14.5835 22.9181 16.5393 18.6462 23.7502 17.2398C26.6052 16.6829 28.4106 16.42 29.9015 16.2183M21.69 35.9924C34.0515 37.8677 35.5967 36.93 43.3226 33.1795M21.69 35.9924C19.6297 37.2426 11.904 39.4308 6.23805 35.9924C-3.03259 30.3666 1.26967 19.5188 9.32845 9.73869C13.9641 4.11289 25.2957 -2.45052 31.9913 2.70652C36.1709 5.9257 38.172 8.8011 37.1419 14.8957M21.69 35.9924C26.0484 36.6536 29.0622 36.9651 31.4764 36.9269M37.1419 14.8957C42.8076 13.4893 46.9281 17.2398 47.9582 19.5839C48.9884 21.9279 51.0486 29.429 43.3226 33.1795M37.1419 14.8957C39.6142 14.8957 40.2325 17.7085 40.2325 18.6462M37.1419 14.8957C34.0398 15.6658 32.4818 15.8737 30.5234 16.135M43.3226 33.1795C38.3207 35.6077 35.9095 36.8568 31.4764 36.9269M29.4162 7.86342C29.4162 6.92579 28.7981 5.05053 26.3258 5.05053M19.63 14.4268C19.63 13.4892 18.5998 11.6139 16.0245 12.0828M29.9312 16.2143C29.9312 15.2767 28.386 13.4892 26.3258 13.4892M29.9312 16.2143C30.1338 16.187 30.3305 16.1607 30.5234 16.135M29.9312 16.2143C29.9213 16.2157 29.9115 16.217 29.9015 16.2183M10.8739 21.9279C10.8739 20.9903 9.22566 18.6462 6.75335 18.6462M20.145 23.8031C20.145 22.8655 20.042 20.5214 17.5697 20.5214M33.0216 23.8031C33.5367 22.3968 32.4035 19.5839 29.9312 19.5839M41.2626 25.6784C41.2626 24.7408 40.6446 22.8655 38.1723 22.8655M31.4764 36.9269C33.0216 35.9924 33.0216 32.7106 30.9614 32.7106M30.5234 16.135C30.3211 16.162 30.1145 16.1895 29.9015 16.2183M14.4791 34.1171C14.4791 31.773 11.8008 29.4289 9.32845 29.4289M27.3562 30.3666C27.8712 28.9602 24.2658 26.616 22.2053 28.0225M41.2626 32.2418C41.7777 30.8354 38.1725 28.4913 36.112 29.8977" stroke="black" stroke-linecap="round"/>
</svg>
