<svg width="44" height="45" viewBox="0 0 44 45" fill="none" xmlns="http://www.w3.org/2000/svg">
<path d="M0.875122 42.8524C24.3751 42.8524 39.6751 15.2524 38.8751 0.852448" stroke="black" stroke-width="1.5" stroke-linecap="round"/>
<path d="M13.1667 40.326C-0.62482 33.3524 8.27512 19.6524 11.8751 16.8524C14.084 20.8789 20.8752 29.8524 13.1667 40.326Z" fill="#FFC144"/>
<path d="M13.1667 40.326C23.8751 34.3524 34.3751 37.8524 39.8751 40.326C37.3751 43.8524 25.8751 46.7518 13.1667 40.326Z" fill="#FFC144"/>
<path d="M13.1667 40.326C-0.62482 33.3524 8.27512 19.6524 11.8751 16.8524C14.084 20.8789 20.8752 29.8524 13.1667 40.326ZM13.1667 40.326C23.8751 34.3524 34.3751 37.8524 39.8751 40.326C37.3751 43.8524 25.8751 46.7518 13.1667 40.326Z" stroke="black" stroke-width="1.5" stroke-linecap="round"/>
<path d="M20.7926 35.8524C15.8752 26.3524 16.8751 22.3524 20.3753 16.8524C24.8753 22.3524 26.3754 28.8524 20.7926 35.8524Z" fill="#FFDA8F"/>
<path d="M39.3751 32.3524C32.8751 28.3524 30.3751 30.3524 20.7926 35.8524L20.823 35.86C30.8832 38.3545 34.8797 39.3454 39.3751 32.3524Z" fill="#FFDA8F"/>
<path d="M20.7926 35.8524C15.8752 26.3524 16.8751 22.3524 20.3753 16.8524C24.8753 22.3524 26.3754 28.8524 20.7926 35.8524ZM20.7926 35.8524C30.3751 30.3524 32.8751 28.3524 39.3751 32.3524C34.8797 39.3454 30.8832 38.3545 20.823 35.86M20.7926 35.8524L20.823 35.86M20.7926 35.8524C20.8028 35.855 20.8129 35.8575 20.823 35.86" stroke="black" stroke-width="1.5" stroke-linecap="round"/>
<path d="M27.7925 29.8524C23.8751 25.3524 23.2751 17.6524 26.8751 14.8524C29.084 18.8789 31.3751 21.3524 27.7925 29.8524Z" fill="#FFC144"/>
<path d="M27.7925 29.8524C32.8751 22.3524 35.8751 22.3524 40.8751 23.8524C39.3751 28.3524 34.3751 31.8524 27.7925 29.8524Z" fill="#FFC144"/>
<path d="M27.7925 29.8524C23.8751 25.3524 23.2751 17.6524 26.8751 14.8524C29.084 18.8789 31.3751 21.3524 27.7925 29.8524ZM27.7925 29.8524C32.8751 22.3524 35.8751 22.3524 40.8751 23.8524C39.3751 28.3524 34.3751 31.8524 27.7925 29.8524Z" stroke="black" stroke-width="1.5" stroke-linecap="round"/>
<path d="M32.6993 20.8524C28.3751 15.3524 27.3751 11.8524 30.8751 7.85245C33.8752 10.8524 34.3751 13.8524 32.6993 20.8524Z" fill="#FFDA8F"/>
<path d="M32.6993 20.8524C36.415 15.3524 37.915 13.8524 42.915 16.3524C40.915 20.3524 38.8751 21.3524 32.6993 20.8524Z" fill="#FFDA8F"/>
<path d="M32.6993 20.8524C28.3751 15.3524 27.3751 11.8524 30.8751 7.85245C33.8752 10.8524 34.3751 13.8524 32.6993 20.8524ZM32.6993 20.8524C36.415 15.3524 37.915 13.8524 42.915 16.3524C40.915 20.3524 38.8751 21.3524 32.6993 20.8524Z" stroke="black" stroke-width="1.5" stroke-linecap="round"/>
<path d="M36.7928 13.8524C32.8752 9.35245 32.8752 6.85245 35.3751 2.35245C37.8751 6.35245 37.8752 6.85245 36.7928 13.8524Z" fill="#FFC144"/>
<path d="M36.7928 13.8524C38.3752 7.85245 39.8752 7.35245 42.8752 5.35245C43.8752 9.35245 41.8752 11.8524 36.7928 13.8524Z" fill="#FFC144"/>
<path d="M36.7928 13.8524C32.8752 9.35245 32.8752 6.85245 35.3751 2.35245C37.8751 6.35245 37.8752 6.85245 36.7928 13.8524ZM36.7928 13.8524C38.3752 7.85245 39.8752 7.35245 42.8752 5.35245C43.8752 9.35245 41.8752 11.8524 36.7928 13.8524Z" stroke="black" stroke-width="1.5" stroke-linecap="round"/>
</svg>
