<svg width="38" height="48" viewBox="0 0 38 48" fill="none" xmlns="http://www.w3.org/2000/svg">
<path d="M0.75 29.8379C0.749856 42.8379 8.75 46.8379 16.7501 46.8379C24.7501 46.8379 32.75 42.8379 32.75 29.8379C32.75 27.7584 32.4197 25.5587 31.8475 23.3379C30.3158 17.3929 27.051 11.2958 23.75 6.94289C21.388 3.82819 19.0074 1.6066 17.2301 0.972975C16.9192 0.86214 16.5797 0.862371 16.2688 0.973273C11.0795 2.82454 0.750129 18.2093 0.75 29.8379Z" fill="#FFDA8F"/>
<path d="M29.4247 1.01385C29.3278 0.915506 29.1701 0.917773 29.0725 1.01544C27.7433 2.34562 27.5858 2.52691 23.75 6.94289C27.051 11.2958 30.3158 17.3929 31.8475 23.3379C33.75 22.8379 37.25 20.8379 37.25 15.3379C37.25 9.34276 31.1955 2.81065 29.4247 1.01385Z" fill="#FFF3DA"/>
<path d="M23.75 6.94289C21.388 3.82819 19.0074 1.6066 17.2301 0.972975C16.9192 0.86214 16.5797 0.862371 16.2688 0.973273C11.0795 2.82454 0.750129 18.2093 0.75 29.8379C0.749856 42.8379 8.75 46.8379 16.7501 46.8379C24.7501 46.8379 32.75 42.8379 32.75 29.8379C32.75 27.7584 32.4197 25.5587 31.8475 23.3379M23.75 6.94289C27.5858 2.52691 27.7433 2.34562 29.0725 1.01544C29.1701 0.917773 29.3278 0.915506 29.4247 1.01385C31.1955 2.81065 37.25 9.34276 37.25 15.3379C37.25 20.8379 33.75 22.8379 31.8475 23.3379M23.75 6.94289C27.051 11.2958 30.3158 17.3929 31.8475 23.3379" stroke="black" stroke-width="1.5"/>
<path d="M25.7086 28.0879H25.9586V27.8379C25.9586 26.0429 24.5035 24.5879 22.7086 24.5879C20.9137 24.5879 19.4586 26.0429 19.4586 27.8379V28.0879H19.7086H19.7436H19.7784H19.8128H19.847H19.881H19.9146H19.948H19.9812H20.014H20.0466H20.0789H20.111H20.1428H20.1744H20.2056H20.2367H20.2674H20.298H20.3282H20.3582H20.388H20.4175H20.4467H20.4757H20.5045H20.533H20.5612H20.5892H20.617H20.6445H20.6718H20.6988H20.7256H20.7522H20.7785H20.8046H20.8304H20.856H20.8814H20.9066H20.9315H20.9562H20.9806H21.0048H21.0288H21.0526H21.0761H21.0995H21.1226H21.1454H21.1681H21.1905H21.2127H21.2347H21.2565H21.2781H21.2994H21.3206H21.3415H21.3622H21.3827H21.403H21.4231H21.443H21.4626H21.4821H21.5014H21.5204H21.5393H21.558H21.5764H21.5947H21.6127H21.6306H21.6483H21.6658H21.683H21.7001H21.717H21.7337H21.7503H21.7666H21.7828H21.7987H21.8145H21.8301H21.8455H21.8607H21.8758H21.8907H21.9053H21.9199H21.9342H21.9484H21.9624H21.9762H21.9898H22.0033H22.0166H22.0297H22.0427H22.0555H22.0682H22.0806H22.093H22.1051H22.1171H22.1289H22.1406H22.1521H22.1635H22.1747H22.1857H22.1966H22.2073H22.2179H22.2284H22.2387H22.2488H22.2588H22.2687H22.2784H22.2879H22.2973H22.3066H22.3157H22.3247H22.3336H22.3423H22.3509H22.3594H22.3677H22.3758H22.3839H22.3918H22.3996H22.4073H22.4148H22.4222H22.4295H22.4366H22.4437H22.4506H22.4574H22.464H22.4706H22.477H22.4833H22.4895H22.4956H22.5016H22.5075H22.5132H22.5188H22.5244H22.5298H22.5351H22.5403H22.5454H22.5504H22.5553H22.5601H22.5648H22.5694H22.5739H22.5782H22.5825H22.5867H22.5908H22.5949H22.5988H22.6026H22.6064H22.61H22.6136H22.617H22.6204H22.6237H22.627H22.6301H22.6332H22.6361H22.639H22.6419H22.6446H22.6473H22.6499H22.6524H22.6548H22.6572H22.6595H22.6617H22.6639H22.666H22.668H22.67H22.6719H22.6737H22.6755H22.6772H22.6788H22.6804H22.682H22.6835H22.6849H22.6862H22.6876H22.6888H22.69H22.6912H22.6923H22.6934H22.6944H22.6954H22.6963H22.6972H22.698H22.6988H22.6995H22.7003H22.7009H22.7016H22.7022H22.7027H22.7033H22.7038H22.7042H22.7047H22.7051H22.7055H22.7058H22.7061H22.7064H22.7067H22.7069H22.7072H22.7074H22.7076H22.7077H22.7079H22.708H22.7081H22.7082H22.7083H22.7084H22.7084H22.7085H22.7085H22.7085H22.7086H22.7086H22.7086H22.7086H22.7086H22.7086H22.7086H22.7087H22.7087H22.7087H22.7088H22.7088H22.7089H22.709H22.7091H22.7092H22.7093H22.7095H22.7096H22.7098H22.71H22.7103H22.7105H22.7108H22.7111H22.7114H22.7117H22.7121H22.7125H22.713H22.7134H22.7139H22.7145H22.715H22.7156H22.7163H22.7169H22.7177H22.7184H22.7192H22.72H22.7209H22.7218H22.7228H22.7238H22.7249H22.726H22.7272H22.7284H22.7296H22.731H22.7323H22.7337H22.7352H22.7368H22.7384H22.74H22.7417H22.7435H22.7453H22.7472H22.7492H22.7512H22.7533H22.7555H22.7577H22.76H22.7624H22.7648H22.7673H22.7699H22.7726H22.7753H22.7782H22.7811H22.784H22.7871H22.7902H22.7935H22.7968H22.8002H22.8036H22.8072H22.8108H22.8146H22.8184H22.8223H22.8264H22.8305H22.8347H22.839H22.8433H22.8478H22.8524H22.8571H22.8619H22.8668H22.8718H22.8769H22.8821H22.8874H22.8928H22.8984H22.904H22.9097H22.9156H22.9216H22.9277H22.9339H22.9402H22.9466H22.9532H22.9598H22.9666H22.9735H22.9806H22.9877H22.995H23.0024H23.0099H23.0176H23.0254H23.0333H23.0413H23.0495H23.0578H23.0663H23.0749H23.0836H23.0925H23.1015H23.1106H23.1199H23.1293H23.1388H23.1486H23.1584H23.1684H23.1785H23.1888H23.1993H23.2099H23.2206H23.2315H23.2425H23.2537H23.2651H23.2766H23.2883H23.3001H23.3121H23.3242H23.3366H23.349H23.3617H23.3745H23.3875H23.4006H23.4139H23.4274H23.441H23.4548H23.4688H23.483H23.4973H23.5119H23.5265H23.5414H23.5565H23.5717H23.5871H23.6027H23.6185H23.6344H23.6506H23.6669H23.6835H23.7002H23.7171H23.7342H23.7514H23.7689H23.7866H23.8045H23.8225H23.8408H23.8592H23.8779H23.8968H23.9158H23.9351H23.9546H23.9742H23.9941H24.0142H24.0345H24.055H24.0757H24.0966H24.1178H24.1391H24.1607H24.1825H24.2045H24.2267H24.2491H24.2718H24.2946H24.3177H24.3411H24.3646H24.3884H24.4124H24.4366H24.461H24.4857H24.5106H24.5358H24.5612H24.5868H24.6126H24.6387H24.665H24.6916H24.7184H24.7454H24.7727H24.8002H24.828H24.856H24.8842H24.9127H24.9415H24.9705H24.9997H25.0292H25.059H25.089H25.1192H25.1498H25.1805H25.2116H25.2428H25.2744H25.3062H25.3383H25.3706H25.4032H25.436H25.4692H25.5026H25.5362H25.5702H25.6044H25.6388H25.6736H25.7086ZM13.75 28.0879H14V27.8379C14 26.0429 12.5449 24.5879 10.75 24.5879C8.95507 24.5879 7.5 26.0429 7.5 27.8379V28.0879H7.75H7.78502H7.81976H7.85424H7.88844H7.92237H7.95603H7.98943H8.02255H8.05541H8.08801H8.12034H8.15241H8.18422H8.21576H8.24705H8.27808H8.30885H8.33936H8.36962H8.39962H8.42938H8.45887H8.48812H8.51712H8.54587H8.57437H8.60263H8.63063H8.6584H8.68592H8.7132H8.74023H8.76703H8.79359H8.81991H8.84599H8.87184H8.89745H8.92282H8.94797H8.97288H8.99756H9.02201H9.04624H9.07023H9.094H9.11755H9.14087H9.16397H9.18684H9.2095H9.23193H9.25415H9.27614H9.29792H9.31949H9.34084H9.36198H9.3829H9.40361H9.42412H9.44441H9.4645H9.48438H9.50405H9.52352H9.54278H9.56184H9.5807H9.59936H9.61782H9.63608H9.65414H9.67201H9.68968H9.70716H9.72444H9.74153H9.75844H9.77515H9.79167H9.808H9.82415H9.84011H9.85589H9.87149H9.8869H9.90213H9.91718H9.93205H9.94675H9.96126H9.9756H9.98977H10.0038H10.0176H10.0312H10.0447H10.058H10.0711H10.0841H10.0969H10.1096H10.122H10.1344H10.1465H10.1585H10.1703H10.182H10.1935H10.2049H10.2161H10.2271H10.238H10.2487H10.2593H10.2698H10.2801H10.2902H10.3002H10.3101H10.3198H10.3293H10.3387H10.348H10.3571H10.3661H10.375H10.3837H10.3923H10.4008H10.4091H10.4173H10.4253H10.4332H10.441H10.4487H10.4562H10.4636H10.4709H10.478H10.4851H10.492H10.4988H10.5054H10.512H10.5184H10.5247H10.5309H10.537H10.543H10.5489H10.5546H10.5602H10.5658H10.5712H10.5765H10.5817H10.5868H10.5918H10.5967H10.6015H10.6062H10.6108H10.6153H10.6196H10.6239H10.6281H10.6323H10.6363H10.6402H10.644H10.6478H10.6514H10.655H10.6584H10.6618H10.6651H10.6684H10.6715H10.6746H10.6775H10.6804H10.6833H10.686H10.6887H10.6913H10.6938H10.6962H10.6986H10.7009H10.7031H10.7053H10.7074H10.7094H10.7114H10.7133H10.7151H10.7169H10.7186H10.7202H10.7218H10.7234H10.7249H10.7263H10.7276H10.729H10.7302H10.7314H10.7326H10.7337H10.7348H10.7358H10.7368H10.7377H10.7386H10.7394H10.7402H10.7409H10.7417H10.7423H10.743H10.7436H10.7441H10.7447H10.7452H10.7456H10.7461H10.7465H10.7469H10.7472H10.7475H10.7478H10.7481H10.7483H10.7486H10.7488H10.749H10.7491H10.7493H10.7494H10.7495H10.7496H10.7497H10.7498H10.7498H10.7499H10.7499H10.7499H10.75H10.75H10.75H10.75H10.75H10.75H10.75H10.75H10.75H10.7501H10.7501H10.7501H10.7502H10.7502H10.7503H10.7504H10.7505H10.7506H10.7507H10.7509H10.751H10.7512H10.7514H10.7517H10.7519H10.7522H10.7525H10.7528H10.7531H10.7535H10.7539H10.7544H10.7548H10.7553H10.7559H10.7564H10.757H10.7577H10.7583H10.7591H10.7598H10.7606H10.7614H10.7623H10.7632H10.7642H10.7652H10.7663H10.7674H10.7686H10.7698H10.771H10.7724H10.7737H10.7751H10.7766H10.7782H10.7798H10.7814H10.7831H10.7849H10.7867H10.7886H10.7906H10.7926H10.7947H10.7969H10.7991H10.8014H10.8038H10.8062H10.8087H10.8113H10.814H10.8167H10.8196H10.8225H10.8254H10.8285H10.8316H10.8349H10.8382H10.8416H10.845H10.8486H10.8522H10.856H10.8598H10.8637H10.8677H10.8719H10.8761H10.8804H10.8847H10.8892H10.8938H10.8985H10.9033H10.9082H10.9132H10.9183H10.9235H10.9288H10.9342H10.9398H10.9454H10.9511H10.957H10.963H10.9691H10.9753H10.9816H10.988H10.9946H11.0012H11.008H11.0149H11.022H11.0291H11.0364H11.0438H11.0513H11.059H11.0668H11.0747H11.0827H11.0909H11.0992H11.1077H11.1163H11.125H11.1339H11.1429H11.152H11.1613H11.1707H11.1802H11.1899H11.1998H11.2098H11.2199H11.2302H11.2407H11.2513H11.262H11.2729H11.2839H11.2951H11.3065H11.318H11.3297H11.3415H11.3535H11.3656H11.378H11.3904H11.4031H11.4159H11.4289H11.442H11.4553H11.4688H11.4824H11.4962H11.5102H11.5244H11.5387H11.5533H11.5679H11.5828H11.5979H11.6131H11.6285H11.6441H11.6599H11.6758H11.692H11.7083H11.7249H11.7416H11.7585H11.7756H11.7928H11.8103H11.828H11.8459H11.8639H11.8822H11.9006H11.9193H11.9382H11.9572H11.9765H11.996H12.0156H12.0355H12.0556H12.0759H12.0964H12.1171H12.138H12.1592H12.1805H12.2021H12.2239H12.2459H12.2681H12.2905H12.3132H12.336H12.3591H12.3825H12.406H12.4298H12.4538H12.478H12.5024H12.5271H12.552H12.5772H12.6026H12.6282H12.654H12.6801H12.7064H12.733H12.7598H12.7868H12.8141H12.8416H12.8694H12.8974H12.9256H12.9541H12.9829H13.0119H13.0411H13.0706H13.1004H13.1304H13.1606H13.1912H13.2219H13.253H13.2842H13.3158H13.3476H13.3797H13.412H13.4446H13.4774H13.5106H13.544H13.5776H13.6116H13.6458H13.6802H13.715H13.75ZM20 32.8379V32.5879H19.75H19.715H19.6802H19.6458H19.6116H19.5776H19.544H19.5106H19.4775H19.4446H19.412H19.3797H19.3476H19.3158H19.2842H19.253H19.2219H19.1912H19.1606H19.1304H19.1004H19.0706H19.0411H19.0119H18.9829H18.9541H18.9256H18.8974H18.8694H18.8416H18.8141H18.7868H18.7598H18.733H18.7064H18.6801H18.654H18.6282H18.6026H18.5772H18.552H18.5271H18.5024H18.478H18.4538H18.4298H18.406H18.3825H18.3591H18.336H18.3132H18.2905H18.2681H18.2459H18.2239H18.2021H18.1805H18.1592H18.138H18.1171H18.0964H18.0759H18.0556H18.0355H18.0156H17.996H17.9765H17.9572H17.9382H17.9193H17.9006H17.8822H17.8639H17.8459H17.828H17.8103H17.7928H17.7756H17.7585H17.7416H17.7249H17.7083H17.692H17.6759H17.6599H17.6441H17.6285H17.6131H17.5979H17.5828H17.568H17.5533H17.5387H17.5244H17.5102H17.4962H17.4824H17.4688H17.4553H17.442H17.4289H17.4159H17.4031H17.3904H17.378H17.3657H17.3535H17.3415H17.3297H17.318H17.3065H17.2951H17.2839H17.2729H17.262H17.2513H17.2407H17.2302H17.2199H17.2098H17.1998H17.19H17.1802H17.1707H17.1613H17.152H17.1429H17.1339H17.125H17.1163H17.1077H17.0992H17.0909H17.0828H17.0747H17.0668H17.059H17.0513H17.0438H17.0364H17.0291H17.022H17.0149H17.008H17.0012H16.9946H16.988H16.9816H16.9753H16.9691H16.963H16.957H16.9511H16.9454H16.9398H16.9342H16.9288H16.9235H16.9183H16.9132H16.9082H16.9033H16.8985H16.8938H16.8892H16.8848H16.8804H16.8761H16.8719H16.8678H16.8637H16.8598H16.856H16.8522H16.8486H16.845H16.8416H16.8382H16.8349H16.8316H16.8285H16.8254H16.8225H16.8196H16.8167H16.814H16.8113H16.8087H16.8062H16.8038H16.8014H16.7991H16.7969H16.7947H16.7926H16.7906H16.7886H16.7867H16.7849H16.7831H16.7814H16.7798H16.7782H16.7766H16.7751H16.7737H16.7724H16.771H16.7698H16.7686H16.7674H16.7663H16.7652H16.7642H16.7632H16.7623H16.7614H16.7606H16.7598H16.7591H16.7583H16.7577H16.757H16.7564H16.7559H16.7553H16.7548H16.7544H16.7539H16.7535H16.7531H16.7528H16.7525H16.7522H16.7519H16.7517H16.7514H16.7512H16.751H16.7509H16.7507H16.7506H16.7505H16.7504H16.7503H16.7502H16.7502H16.7501H16.7501H16.7501H16.75H16.75H16.75H16.75H16.75H16.75H16.75H16.7499H16.7499H16.7499H16.7498H16.7498H16.7497H16.7496H16.7495H16.7494H16.7493H16.7491H16.749H16.7488H16.7486H16.7483H16.7481H16.7478H16.7475H16.7472H16.7469H16.7465H16.7461H16.7456H16.7452H16.7447H16.7441H16.7436H16.743H16.7423H16.7417H16.7409H16.7402H16.7394H16.7386H16.7377H16.7368H16.7358H16.7348H16.7337H16.7326H16.7314H16.7302H16.729H16.7276H16.7263H16.7249H16.7234H16.7218H16.7203H16.7186H16.7169H16.7151H16.7133H16.7114H16.7094H16.7074H16.7053H16.7031H16.7009H16.6986H16.6962H16.6938H16.6913H16.6887H16.686H16.6833H16.6804H16.6775H16.6746H16.6715H16.6684H16.6651H16.6618H16.6584H16.655H16.6514H16.6478H16.644H16.6402H16.6363H16.6323H16.6281H16.6239H16.6196H16.6153H16.6108H16.6062H16.6015H16.5967H16.5918H16.5868H16.5817H16.5765H16.5712H16.5658H16.5602H16.5546H16.5489H16.543H16.537H16.5309H16.5247H16.5184H16.512H16.5054H16.4988H16.492H16.4851H16.478H16.4709H16.4636H16.4562H16.4487H16.441H16.4332H16.4253H16.4173H16.4091H16.4008H16.3923H16.3837H16.375H16.3661H16.3571H16.348H16.3387H16.3293H16.3198H16.3101H16.3002H16.2902H16.2801H16.2698H16.2593H16.2487H16.238H16.2271H16.2161H16.2049H16.1935H16.182H16.1703H16.1585H16.1465H16.1344H16.122H16.1096H16.0969H16.0841H16.0711H16.058H16.0447H16.0312H16.0176H16.0038H15.9898H15.9756H15.9613H15.9467H15.9321H15.9172H15.9021H15.8869H15.8715H15.8559H15.8401H15.8242H15.808H15.7917H15.7751H15.7584H15.7415H15.7244H15.7072H15.6897H15.672H15.6541H15.6361H15.6178H15.5994H15.5807H15.5618H15.5428H15.5235H15.504H15.4844H15.4645H15.4444H15.4241H15.4036H15.3829H15.362H15.3408H15.3195H15.2979H15.2761H15.2541H15.2319H15.2095H15.1868H15.164H15.1409H15.1175H15.094H15.0702H15.0462H15.022H14.9976H14.9729H14.948H14.9228H14.8974H14.8718H14.846H14.8199H14.7936H14.767H14.7402H14.7132H14.6859H14.6584H14.6306H14.6026H14.5744H14.5459H14.5171H14.4881H14.4589H14.4294H14.3996H14.3696H14.3394H14.3088H14.2781H14.247H14.2158H14.1842H14.1524H14.1203H14.088H14.0554H14.0226H13.9894H13.956H13.9224H13.8884H13.8542H13.8198H13.785H13.75H13.493L13.5001 32.8448C13.5448 34.4629 14.9412 36.0879 16.75 36.0879C18.5532 36.0879 20 34.4675 20 32.8379Z" fill="white" stroke="black" stroke-width="0.5"/>
</svg>
