<svg xmlns="http://www.w3.org/2000/svg" height="48" viewBox="0 96 960 960" width="48"><path d="M480 942q-153.417 0-259.708-106.292Q114 729.417 114 576q0-153.417 106.292-260.208Q326.583 209 480 209q4.707 0 12.854.5Q501 210 517 211q-32 33-49 79.5T451 384q0 92 65 156.5T673 605q48.891 0 92.446-14.5Q809 576 845 544q0 10 1 18.5t1 13.5q0 153.417-107.042 259.708Q632.917 942 480 942Zm0-73q101 0 179-61.5T759 661q-19 8-41.667 12.5Q694.667 678 674 678q-123 0-209.5-85.916Q378 506.169 378 384q0-19 3.5-40.5T396 294q-92 30-150.5 108.5T187 576q0 122.614 85.193 207.807Q357.386 869 480 869Zm-7-287Z"/></svg>