<svg width="46" height="47" viewBox="0 0 46 47" fill="none" xmlns="http://www.w3.org/2000/svg">
<path d="M30.0528 32.433L32.0528 29.433C31.5528 27.433 30.1181 22.9455 28.5528 20.933C25.0529 16.4331 26.5529 8.43305 22.0529 4.43305C17.151 0.0758681 9.55761 -0.0717788 4.05283 5.43304C-2.06741 11.5533 1.78919 23.1301 7.5529 27.9331C11.3295 31.0801 22.6107 37.6541 28.0528 34.933C30.1039 32.3568 28.0528 34.933 30.0528 32.433Z" fill="#EF4A4D"/>
<path d="M32.0528 29.433L30.0528 32.433C28.0528 34.933 30.1039 32.3568 28.0528 34.933L33.5528 38.933C33.5528 40.2664 34.2529 44.133 35.0529 44.933C36.3001 46.1802 40.5529 46.433 41.5528 43.933C41.9242 43.0046 41.0528 41.933 41.5528 41.433C42.0528 40.933 43.5528 40.933 44.5528 39.933C45.5528 38.933 44.885 34.9877 44.0529 34.433C41.0529 32.433 37.5528 34.86 37.5528 34.433C37.5528 33.633 33.8862 30.7664 32.0528 29.433Z" fill="#EAE9DF"/>
<path d="M30.0528 32.433C32.0528 29.433 30.0528 32.433 32.0528 29.433M30.0528 32.433C28.0528 34.933 30.1039 32.3568 28.0528 34.933M30.0528 32.433L32.0528 29.433M32.0528 29.433C31.5528 27.433 30.1181 22.9455 28.5528 20.933C25.0529 16.4331 26.5529 8.43305 22.0529 4.43305C17.151 0.0758681 9.55761 -0.0717788 4.05283 5.43304C-2.06741 11.5533 1.78919 23.1301 7.5529 27.9331C11.3295 31.0801 22.6107 37.6541 28.0528 34.933M32.0528 29.433C33.8862 30.7664 37.5528 33.633 37.5528 34.433C37.5528 34.86 41.0529 32.433 44.0529 34.433C44.885 34.9877 45.5528 38.933 44.5528 39.933C43.5528 40.933 42.0528 40.933 41.5528 41.433C41.0528 41.933 41.9242 43.0046 41.5528 43.933C40.5529 46.433 36.3001 46.1802 35.0529 44.933C34.2529 44.133 33.5528 40.2664 33.5528 38.933L28.0528 34.933M19.5529 7.43305C18.3862 6.09971 15.0529 3.83304 11.0529 5.43304" stroke="black" stroke-width="1.5" stroke-linecap="round"/>
</svg>
