<svg width="48" height="49" viewBox="0 0 48 49" fill="none" xmlns="http://www.w3.org/2000/svg">
<g clip-path="url(#clip0_64_232)">
<path d="M41.0545 7.85698C36.7903 3.44342 30.5735 0.91217 23.9993 0.91217C17.4266 0.91217 11.2097 3.44342 6.94709 7.85558C2.96272 11.9806 0.881184 17.4957 1.08481 23.3888L1.7044 31.2521C2.26981 39.1974 6.88259 40.0558 8.83821 40.0558C9.54725 40.0558 10.2942 39.9532 11.0531 39.7569C11.1556 40.5011 11.1468 41.8062 11.1395 42.8214L11.1322 44.2336C11.119 45.259 11.0985 46.8117 12.1854 47.9118C12.6351 48.3688 13.4569 48.9123 14.8104 48.9123H33.1898C34.5433 48.9123 35.3637 48.3688 35.8148 47.9133C36.9002 46.8117 36.8812 45.2604 36.868 44.2336L36.8591 42.8244C36.8532 41.8078 36.843 40.5012 36.9471 39.757C37.7132 39.9547 38.4559 40.0559 39.1619 40.0559C41.1175 40.0559 45.7288 39.1975 46.2957 31.2668L46.911 23.471L46.9154 23.3889C47.119 17.4957 45.0373 11.9806 41.0545 7.85698ZM43.1214 23.2159L42.5105 30.9825C42.26 34.4835 41.1321 36.2588 39.1618 36.2588C38.7077 36.2588 38.1994 36.1753 37.634 36.0068C36.2834 35.6172 35.113 35.8779 34.2868 36.7099C33.03 37.9756 33.0431 40.0205 33.0637 42.8506L33.071 44.2832C33.0739 44.5175 33.0783 44.8633 33.0578 45.1152H29.05V40.4262H26.0119V45.1153H21.9865V40.4263H18.9498V45.1153H14.9405C14.9215 44.8633 14.9259 44.5176 14.9288 44.2804L14.9361 42.8463C14.9566 40.0191 14.9697 37.9757 13.7129 36.71C12.8911 35.8809 11.7486 35.6085 10.3497 36.0113C9.80037 36.1754 9.29206 36.2589 8.83793 36.2589C6.86628 36.2589 5.74128 34.4835 5.48928 30.9679L4.877 23.2159C4.72175 18.3775 6.42387 13.8614 9.67728 10.4951C13.2297 6.81842 18.4505 4.70905 23.9993 4.70905C29.5496 4.70905 34.7703 6.81842 38.3225 10.4952C41.576 13.8614 43.2795 18.3775 43.1214 23.2159Z" fill="#E8E3E3"/>
<path d="M24.0008 29.9424C23.0897 29.9424 21.0829 34.3194 20.7167 35.0489C20.3534 35.7784 21.0829 36.8741 22.1771 36.5079C23.2714 36.1446 24.0008 35.2321 24.0008 35.2321C24.0008 35.2321 24.7303 36.1446 25.8245 36.5079C26.9173 36.8741 27.6483 35.7784 27.2836 35.0489C26.9173 34.3194 24.9134 29.9424 24.0008 29.9424Z" fill="#E8E3E3"/>
<path d="M16.0863 18.0948C13.1902 17.7901 10.5946 19.8936 10.2899 22.7911L9.89725 25.5494C9.59257 28.4483 11.6961 31.0411 14.5921 31.3458C17.491 31.6505 20.0867 29.5484 20.3899 26.6495L20.7826 23.8911C21.0858 20.9923 18.9852 18.3995 16.0863 18.0948Z" fill="#E8E3E3"/>
<path d="M37.7103 22.7911C37.4071 19.8936 34.8098 17.7901 31.9139 18.0948C29.0149 18.3995 26.9144 20.9922 27.2176 23.8911L27.6087 26.6495C27.9134 29.5484 30.5091 31.6505 33.4066 31.3458C36.304 31.0411 38.4076 28.4483 38.1029 25.5494L37.7103 22.7911Z" fill="#E8E3E3"/>
</g>
<defs>
<clipPath id="clip0_64_232">
<rect width="48" height="48" fill="white" transform="translate(0 0.91217)"/>
</clipPath>
</defs>
</svg>
