<svg width="21" height="22" viewBox="0 0 21 22" fill="none" xmlns="http://www.w3.org/2000/svg">
<g clip-path="url(#clip0_70_430)">
<path d="M17.606 2.89367C15.8293 1.05469 13.2389 0 10.4997 0C7.76105 0 5.1707 1.05469 3.39461 2.89309C1.73445 4.61184 0.867145 6.9098 0.951989 9.36527L1.21015 12.6416C1.44574 15.9522 3.36773 16.3098 4.18257 16.3098C4.478 16.3098 4.78925 16.2671 5.10543 16.1853C5.14816 16.4954 5.14449 17.0392 5.14144 17.4622L5.13839 18.0506C5.13289 18.4779 5.12437 19.1248 5.57722 19.5832C5.76461 19.7736 6.10703 20 6.67097 20H14.3291C14.893 20 15.2348 19.7736 15.4228 19.5838C15.8751 19.1248 15.8671 18.4784 15.8616 18.0506L15.858 17.4634C15.8555 17.0398 15.8512 16.4954 15.8946 16.1854C16.2138 16.2677 16.5233 16.3099 16.8175 16.3099C17.6323 16.3099 19.5537 15.9522 19.7899 12.6478L20.0462 9.39949L20.0481 9.36531C20.1329 6.9098 19.2655 4.61184 17.606 2.89367ZM18.4672 9.2932L18.2127 12.5293C18.1083 13.988 17.6384 14.7278 16.8174 14.7278C16.6282 14.7278 16.4164 14.693 16.1808 14.6228C15.6181 14.4604 15.1304 14.5691 14.7862 14.9157C14.2625 15.4431 14.268 16.2952 14.2765 17.4743L14.2796 18.0712C14.2808 18.1689 14.2826 18.313 14.2741 18.4179H12.6041V16.4642H11.3383V18.418H9.66101V16.4642H8.39574V18.418H6.72519C6.71726 18.313 6.7191 18.1689 6.72031 18.0701L6.72336 17.4725C6.73191 16.2946 6.73738 15.4431 6.21371 14.9158C5.87129 14.5703 5.39523 14.4568 4.81234 14.6246C4.58347 14.693 4.37168 14.7278 4.18246 14.7278C3.36093 14.7278 2.89218 13.988 2.78718 12.5232L2.53207 9.2932C2.46738 7.27723 3.1766 5.39551 4.53218 3.99289C6.01238 2.46094 8.18769 1.58203 10.4997 1.58203C12.8123 1.58203 14.9876 2.46094 16.4677 3.99293C17.8233 5.39551 18.5331 7.27723 18.4672 9.2932Z" fill="#273B49"/>
<path d="M10.5003 12.0959C10.1207 12.0959 9.28449 13.9197 9.13192 14.2236C8.98055 14.5276 9.28449 14.9842 9.74043 14.8316C10.1964 14.6802 10.5003 14.3 10.5003 14.3C10.5003 14.3 10.8043 14.6802 11.2602 14.8316C11.7155 14.9842 12.0201 14.5276 11.8681 14.2236C11.7155 13.9197 10.8805 12.0959 10.5003 12.0959Z" fill="#273B49"/>
<path d="M7.20258 7.15944C5.9959 7.03249 4.91437 7.90897 4.78742 9.11624L4.62383 10.2655C4.49687 11.4734 5.37336 12.5537 6.58 12.6807C7.78789 12.8076 8.86941 11.9318 8.99578 10.7239L9.15937 9.57459C9.2857 8.36674 8.41047 7.28639 7.20258 7.15944Z" fill="#273B49"/>
<path d="M16.2126 9.11624C16.0862 7.90897 15.0041 7.03249 13.7974 7.15944C12.5895 7.28639 11.7143 8.3667 11.8406 9.57459L12.0036 10.7239C12.1305 11.9318 13.2121 12.8076 14.4194 12.6807C15.6266 12.5537 16.5031 11.4734 16.3762 10.2655L16.2126 9.11624Z" fill="#273B49"/>
</g>
<path d="M20.5 18H0.5V22H20.5V18Z" fill="#687782" mask="url(#path-1-outside-1_70_430)"/>
<defs>
<clipPath id="clip0_70_430">
<path d="M0.5 0H20.5V20H0.5V0Z" fill="white"/>
</clipPath>
</defs>
</svg>
