<svg width="48" height="46" viewBox="0 0 48 46" fill="none" xmlns="http://www.w3.org/2000/svg">
<path d="M11.75 6.83786L22.25 12.3379L33.25 6.83786L22.25 0.83786L11.75 6.83786Z" fill="#E4F6FF"/>
<path d="M1.25 26.3379L11.75 31.8379L22.25 26.3379L11.75 20.8379L1.25 26.3379Z" fill="#E4F6FF"/>
<path d="M30.5508 22.007L26.25 22.3379L27.3692 23.667L34.25 31.8379L46.75 31.3379L39.25 21.3379L30.5508 22.007Z" fill="#E4F6FF"/>
<path d="M11.75 20.8379L22.25 26.3379V12.3379L11.75 6.83786V20.8379Z" fill="#B1E4F9"/>
<path d="M22.25 12.3379V26.3379L25.0309 24.887L26.25 22.3379L30.5508 22.007L33.75 20.3379L33.25 6.83786L22.25 12.3379Z" fill="#90D8F9"/>
<path d="M22.25 30.7015L25.0309 24.887L22.25 26.3379V30.7015Z" fill="black"/>
<path d="M11.75 45.3379V31.8379L1.25 26.3379V39.8379L11.75 45.3379Z" fill="#B1E4F9"/>
<path d="M28.75 43.3379L34.25 31.8379L27.3692 23.667L26.25 22.3379L25.0309 24.887L22.25 30.7015L20.75 33.8379L22.25 35.6191L28.75 43.3379Z" fill="#B1E4F9"/>
<path d="M11.75 31.8379V45.3379L22.25 39.8379V35.6191L20.75 33.8379L22.25 30.7015V26.3379L11.75 31.8379Z" fill="#90D8F9"/>
<path d="M34.25 31.8379L28.75 43.3379H41.75L46.75 31.3379L34.25 31.8379Z" fill="#90D8F9"/>
<path d="M11.75 45.3379V31.8379M11.75 45.3379L1.25 39.8379V26.3379M11.75 45.3379L22.25 39.8379V35.6191M11.75 31.8379L1.25 26.3379M11.75 31.8379L22.25 26.3379M1.25 26.3379L11.75 20.8379M11.75 20.8379L22.25 26.3379M11.75 20.8379V6.83786M22.25 26.3379V12.3379M22.25 26.3379L25.0309 24.887M22.25 26.3379V30.7015M22.25 12.3379L11.75 6.83786M22.25 12.3379L33.25 6.83786M11.75 6.83786L22.25 0.83786L33.25 6.83786M33.25 6.83786L33.75 20.3379L30.5508 22.007M28.75 43.3379L34.25 31.8379M28.75 43.3379H41.75L46.75 31.3379M28.75 43.3379L22.25 35.6191M34.25 31.8379L46.75 31.3379M34.25 31.8379L27.3692 23.667L26.25 22.3379M26.25 22.3379L30.5508 22.007M26.25 22.3379L25.0309 24.887M46.75 31.3379L39.25 21.3379L30.5508 22.007M22.25 30.7015L25.0309 24.887M22.25 30.7015L20.75 33.8379L22.25 35.6191" stroke="black" stroke-linecap="round"/>
</svg>
