<svg width="38" height="43" viewBox="0 0 38 43" fill="none" xmlns="http://www.w3.org/2000/svg">
<path d="M5.00004 26.7501C-2.50001 36.7501 8.88894 49.25 19 36.2501L25.304 27.1342L12.0948 17.2246L5.00004 26.7501Z" fill="#F33D3D"/>
<path d="M32.0001 18.2501C40.2655 7.62307 27.0001 -2.24994 19.0001 8.25006C11.0001 18.7501 12.0948 17.2246 12.0948 17.2246L25.304 27.1342C29.0378 22.3336 18.6267 35.4445 32.0001 18.2501Z" fill="#4964F4"/>
<path d="M19 36.2501C8.88894 49.2501 -2.50001 36.7501 5.00004 26.7501L12.0948 17.2246M19 36.2501C23.1266 30.9444 21.652 32.1921 25.304 27.1342M19 36.2501L25.304 27.1342M12.0948 17.2246C12.0948 17.2246 11.0001 18.7501 19.0001 8.25006C27.0001 -2.24994 40.2655 7.62307 32.0001 18.2501C18.6267 35.4445 29.0378 22.3336 25.304 27.1342M12.0948 17.2246L25.304 27.1342" stroke="black" stroke-width="1.5" stroke-linecap="round"/>
<path d="M25.7826 20.4142V39.1342H27.7026V20.4142H25.7826ZM31.7826 28.0942L26.9826 32.6542L32.2626 39.1342H34.6626L29.3826 32.6542L34.1826 28.0942H31.7826Z" fill="#121212"/>
<path d="M22 9.67685C23 7.17685 27.5 5.67685 30 7.67685" stroke="black" stroke-width="1.5" stroke-linecap="round"/>
</svg>
